<svg width="20" height="20" viewBox="0 0 20 20" fill="none" xmlns="http://www.w3.org/2000/svg">
<path d="M13.7501 5.625C13.6915 5.6831 13.645 5.75223 13.6133 5.82839C13.5816 5.90455 13.5652 5.98624 13.5652 6.06875C13.5652 6.15126 13.5816 6.23295 13.6133 6.30911C13.645 6.38527 13.6915 6.4544 13.7501 6.5125L16.6251 9.3875H1.9126C1.74684 9.3875 1.58787 9.45335 1.47066 9.57056C1.35345 9.68777 1.2876 9.84674 1.2876 10.0125C1.2876 10.1783 1.35345 10.3372 1.47066 10.4544C1.58787 10.5716 1.74684 10.6375 1.9126 10.6375H16.6126L13.7501 13.4937C13.6337 13.6109 13.5684 13.7693 13.5684 13.9344C13.5684 14.0995 13.6337 14.2579 13.7501 14.375C13.8672 14.4914 14.0256 14.5567 14.1907 14.5567C14.3558 14.5567 14.5142 14.4914 14.6313 14.375L18.6063 10.4C18.6598 10.3487 18.7024 10.287 18.7315 10.2188C18.7606 10.1506 18.7756 10.0773 18.7756 10.0031C18.7756 9.92898 18.7606 9.8556 18.7315 9.7874C18.7024 9.7192 18.6598 9.65758 18.6063 9.60625L14.6376 5.625C14.5795 5.56642 14.5104 5.51992 14.4342 5.48819C14.358 5.45646 14.2764 5.44012 14.1938 5.44012C14.1113 5.44012 14.0296 5.45646 13.9535 5.48819C13.8773 5.51992 13.8082 5.56642 13.7501 5.625Z" fill="black"/>
</svg>
