<svg width="20" height="20" viewBox="0 0 20 20" fill="none" xmlns="http://www.w3.org/2000/svg">
<path d="M6.2499 14.375C6.30848 14.3169 6.35498 14.2478 6.38671 14.1716C6.41844 14.0954 6.43478 14.0138 6.43478 13.9313C6.43478 13.8487 6.41844 13.7671 6.38671 13.6909C6.35498 13.6147 6.30848 13.5456 6.2499 13.4875L3.3749 10.6125H18.0874C18.2532 10.6125 18.4121 10.5467 18.5293 10.4294C18.6466 10.3122 18.7124 10.1533 18.7124 9.9875C18.7124 9.82174 18.6466 9.66277 18.5293 9.54556C18.4121 9.42835 18.2532 9.3625 18.0874 9.3625H3.3874L6.2499 6.50625C6.36631 6.38915 6.43165 6.23074 6.43165 6.06563C6.43165 5.90051 6.36631 5.7421 6.2499 5.625C6.1328 5.50859 5.97439 5.44326 5.80928 5.44326C5.64416 5.44326 5.48575 5.50859 5.36865 5.625L1.39365 9.6C1.34015 9.65133 1.29758 9.71295 1.2685 9.78115C1.23942 9.84936 1.22443 9.92273 1.22443 9.99688C1.22443 10.071 1.23942 10.1444 1.2685 10.2126C1.29758 10.2808 1.34015 10.3424 1.39365 10.3938L5.3624 14.375C5.42051 14.4336 5.48963 14.4801 5.56579 14.5118C5.64196 14.5435 5.72365 14.5599 5.80615 14.5599C5.88866 14.5599 5.97035 14.5435 6.04651 14.5118C6.12268 14.4801 6.1918 14.4336 6.2499 14.375Z" fill="black"/>
</svg>
