<?xml version="1.0" standalone="no"?>
<!DOCTYPE svg PUBLIC "-//W3C//DTD SVG 20010904//EN"
 "http://www.w3.org/TR/2001/REC-SVG-20010904/DTD/svg10.dtd">
<svg version="1.0" xmlns="http://www.w3.org/2000/svg"
 width="512.000000pt" height="512.000000pt" viewBox="0 0 512.000000 512.000000"
 preserveAspectRatio="xMidYMid meet">

<g transform="translate(0.000000,512.000000) scale(0.100000,-0.100000)"
fill="#000000" stroke="none">
<path d="M1241 4864 c-253 -68 -410 -331 -346 -579 45 -172 179 -305 352 -350
41 -11 111 -15 245 -15 l188 0 0 -323 0 -323 -52 -24 c-64 -29 -126 -89 -158
-155 -25 -49 -25 -55 -28 -331 l-3 -282 -162 -4 c-146 -4 -167 -6 -212 -28
-64 -31 -124 -91 -155 -155 -34 -69 -35 -198 -2 -265 34 -71 75 -113 144 -151
l63 -34 163 -3 162 -4 0 -198 0 -198 -202 -4 c-191 -3 -206 -5 -253 -28 -64
-31 -124 -91 -155 -155 -34 -69 -35 -198 -2 -265 34 -71 75 -113 144 -151 l63
-34 201 -3 202 -4 4 -161 c3 -142 7 -168 26 -207 35 -71 75 -113 144 -151 l63
-34 885 0 885 0 63 34 c70 38 101 70 140 145 25 48 26 61 30 213 l4 161 202 4
201 3 63 34 c70 38 101 70 140 145 22 43 26 64 26 136 1 78 -2 90 -33 148 -37
69 -80 109 -151 144 -41 21 -62 23 -247 26 l-203 4 0 198 0 198 123 4 c116 4
125 6 185 38 70 37 100 68 140 144 22 43 26 64 26 136 1 78 -2 90 -33 148 -38
69 -80 110 -151 144 -36 17 -68 22 -167 26 l-122 4 -3 282 -3 281 -34 63 c-38
71 -82 112 -153 144 l-48 22 0 323 0 323 188 0 c136 0 204 4 247 15 172 45
305 179 350 352 65 249 -94 511 -350 578 -87 22 -943 22 -1030 0 -87 -23 -167
-70 -230 -135 l-55 -59 -55 59 c-63 65 -143 112 -230 135 -84 22 -952 21
-1034 -1z m2039 -1264 l0 -320 -720 0 -720 0 0 320 0 320 720 0 720 0 0 -320z
m166 -506 c15 -11 37 -33 48 -48 20 -26 21 -44 26 -356 5 -299 7 -331 23 -347
15 -15 42 -19 187 -23 184 -5 196 -9 244 -74 29 -39 29 -133 0 -172 -48 -65
-60 -69 -246 -74 -164 -5 -171 -6 -189 -29 -18 -22 -19 -43 -19 -331 0 -288 1
-309 19 -331 19 -24 21 -24 269 -29 275 -5 275 -6 326 -74 29 -39 29 -133 0
-172 -51 -68 -51 -69 -324 -74 -222 -4 -251 -7 -267 -23 -16 -15 -19 -44 -23
-227 -5 -228 -7 -235 -74 -284 -27 -21 -34 -21 -886 -21 -852 0 -859 0 -886
21 -67 49 -69 56 -74 284 -4 183 -7 212 -23 227 -16 16 -45 19 -267 23 -273 5
-273 6 -324 74 -29 39 -29 133 0 172 51 68 51 69 326 74 248 5 250 5 269 29
18 22 19 43 19 331 0 288 -1 309 -19 331 -19 24 -23 24 -229 29 -230 5 -236 7
-286 74 -29 39 -29 133 0 172 50 67 56 69 286 74 206 5 210 5 229 29 18 22 19
43 19 331 0 320 3 345 43 389 48 52 19 51 929 48 838 -2 847 -2 874 -23z"/>
</g>
</svg>
