<svg width="25" height="25" viewBox="0 0 25 25" fill="none" xmlns="http://www.w3.org/2000/svg">
<path fill-rule="evenodd" clip-rule="evenodd" d="M5 0C2.23858 0 0 2.23858 0 5V20C0 22.7614 2.23858 25 5 25H20C22.7614 25 25 22.7614 25 20V5C25 2.23858 22.7614 0 20 0H5ZM7.31252 15.6542H8.82918C8.92974 15.6542 9.02619 15.6941 9.09729 15.7652C9.1684 15.8363 9.20835 15.9328 9.20835 16.0333V17.55C9.20835 17.6506 9.1684 17.747 9.09729 17.8181C9.02619 17.8892 8.92974 17.9292 8.82918 17.9292H7.31252C7.21196 17.9292 7.11551 17.8892 7.0444 17.8181C6.9733 17.747 6.93335 17.6506 6.93335 17.55V16.0333C6.93335 15.9328 6.9733 15.8363 7.0444 15.7652C7.11551 15.6941 7.21196 15.6542 7.31252 15.6542ZM7.31252 8.07083H8.82918C8.92974 8.07083 9.02619 8.11078 9.09729 8.18189C9.1684 8.253 9.20835 8.34944 9.20835 8.45V9.96667C9.20835 10.0672 9.1684 10.1637 9.09729 10.2348C9.02619 10.3059 8.92974 10.3458 8.82918 10.3458H7.31252C7.21196 10.3458 7.11551 10.3059 7.0444 10.2348C6.9733 10.1637 6.93335 10.0672 6.93335 9.96667V8.45C6.93335 8.34944 6.9733 8.253 7.0444 8.18189C7.11551 8.11078 7.21196 8.07083 7.31252 8.07083ZM7.31252 11.8625H8.82918C8.92974 11.8625 9.02619 11.9024 9.09729 11.9736C9.1684 12.0447 9.20835 12.1411 9.20835 12.2417V13.7583C9.20835 13.8589 9.1684 13.9553 9.09729 14.0264C9.02619 14.0976 8.92974 14.1375 8.82918 14.1375H7.31252C7.21196 14.1375 7.11551 14.0976 7.0444 14.0264C6.9733 13.9553 6.93335 13.8589 6.93335 13.7583V12.2417C6.93335 12.1411 6.9733 12.0447 7.0444 11.9736C7.11551 11.9024 7.21196 11.8625 7.31252 11.8625ZM11.1042 16.0333H18.6875C18.7881 16.0333 18.8845 16.0733 18.9556 16.1444C19.0267 16.2155 19.0667 16.3119 19.0667 16.4125V17.1708C19.0667 17.2714 19.0267 17.3678 18.9556 17.4389C18.8845 17.5101 18.7881 17.55 18.6875 17.55H11.1042C11.0036 17.55 10.9072 17.5101 10.8361 17.4389C10.765 17.3678 10.725 17.2714 10.725 17.1708V16.4125C10.725 16.3119 10.765 16.2155 10.8361 16.1444C10.9072 16.0733 11.0036 16.0333 11.1042 16.0333ZM11.1042 8.45H18.6875C18.7881 8.45 18.8845 8.48995 18.9556 8.56106C19.0267 8.63216 19.0667 8.72861 19.0667 8.82917V9.5875C19.0667 9.68806 19.0267 9.7845 18.9556 9.85561C18.8845 9.92672 18.7881 9.96667 18.6875 9.96667H11.1042C11.0036 9.96667 10.9072 9.92672 10.8361 9.85561C10.765 9.7845 10.725 9.68806 10.725 9.5875V8.82917C10.725 8.72861 10.765 8.63216 10.8361 8.56106C10.9072 8.48995 11.0036 8.45 11.1042 8.45ZM11.1042 12.2417H18.6875C18.7881 12.2417 18.8845 12.2816 18.9556 12.3527C19.0267 12.4238 19.0667 12.5203 19.0667 12.6208V13.3792C19.0667 13.4797 19.0267 13.5762 18.9556 13.6473C18.8845 13.7184 18.7881 13.7583 18.6875 13.7583H11.1042C11.0036 13.7583 10.9072 13.7184 10.8361 13.6473C10.765 13.5762 10.725 13.4797 10.725 13.3792V12.6208C10.725 12.5203 10.765 12.4238 10.8361 12.3527C10.9072 12.2816 11.0036 12.2417 11.1042 12.2417Z" fill="white"/>
</svg>
