<svg width="15" height="16" viewBox="0 0 15 16" fill="none" xmlns="http://www.w3.org/2000/svg">
<path d="M6.96094 9.07812L6.42188 8.53906L12.4688 2.51562L12.9844 3.03125L6.96094 9.07812Z" fill="black"/>
<path d="M13.125 6.38281H12.3281V3.17187H9.11719V2.375H13.125V6.38281Z" fill="black"/>
<path d="M11.1094 13.625H3.07031C2.41406 13.625 1.875 13.0859 1.875 12.4297V4.39063C1.875 3.73438 2.41406 3.19531 3.07031 3.19531H7.5V3.99219H3.07031C2.85938 3.99219 2.67187 4.17969 2.67187 4.39063V12.4297C2.67187 12.6406 2.85938 12.8281 3.07031 12.8281H11.1094C11.3203 12.8281 11.5078 12.6406 11.5078 12.4297V8H12.3047V12.4297C12.3281 13.0859 11.7891 13.625 11.1094 13.625Z" fill="black"/>
</svg>
