<svg width="25" height="25" viewBox="0 0 25 25" fill="none" xmlns="http://www.w3.org/2000/svg">
<path fill-rule="evenodd" clip-rule="evenodd" d="M21.6921 20.8463C23.7103 18.6263 24.9404 15.677 24.9404 12.4404C24.9404 9.00707 23.5562 5.89701 21.3154 3.63789C19.0552 1.38951 15.9398 0 12.5 0C5.59644 0 0 5.59646 0 12.5C0 15.7437 1.23556 18.6989 3.26172 20.9205C5.20843 17.8794 8.61818 15.8606 12.5008 15.8606C16.3518 15.8606 19.7375 17.8466 21.6921 20.8463ZM20.1296 22.2964C18.582 19.6942 15.7439 17.9539 12.5008 17.9539C9.23106 17.9539 6.37306 19.7229 4.8342 22.3607C6.94125 23.9786 9.57852 24.9404 12.4404 24.9404C15.34 24.9404 18.009 23.9531 20.1296 22.2964ZM12.5003 5.12934C9.64047 5.12934 7.32212 7.44769 7.32212 10.3075C7.32212 13.1674 9.64047 15.4857 12.5003 15.4857C15.3601 15.4857 17.6785 13.1674 17.6785 10.3075C17.6785 7.44769 15.3601 5.12934 12.5003 5.12934ZM9.41542 10.3075C9.41542 8.6038 10.7966 7.22265 12.5003 7.22265C14.204 7.22265 15.5852 8.6038 15.5852 10.3075C15.5852 12.0113 14.204 13.3924 12.5003 13.3924C10.7966 13.3924 9.41542 12.0113 9.41542 10.3075Z" fill="white"/>
</svg>
